{
  "accessors": [
    {
      "bufferView": 2,
      "componentType": 5126,
      "count": 65532,
      "max": [
        2.4398293495178223,
        2.137606620788574,
        5.706936359405518
      ],
      "min": [
        -5.127535820007324,
        -1.4507086277008057,
        -8.206175804138184
      ],
      "type": "VEC3"
    },
    {
      "bufferView": 2,
      "byteOffset": 786384,
      "componentType": 5126,
      "count": 65532,
      "max": [
        1.0,
        1.0,
        0.9995347261428833
      ],
      "min": [
        -1.0,
        -1.0,
        -1.0
      ],
      "type": "VEC3"
    },
    {
      "bufferView": 1,
      "componentType": 5126,
      "count": 65532,
      "max": [
        6.56294584274292,
        2.9517507553100586
      ],
      "min": [
        -6.832494735717773,
        -1.8751697540283203
      ],
      "type": "VEC2"
    },
    {
      "bufferView": 1,
      "byteOffset": 524256,
      "componentType": 5126,
      "count": 65532,
      "max": [
        6.56294584274292,
        2.9517507553100586
      ],
      "min": [
        -6.832494735717773,
        -1.8751697540283203
      ],
      "type": "VEC2"
    },
    {
      "bufferView": 0,
      "componentType": 5125,
      "count": 331377,
      "type": "SCALAR"
    },
    {
      "bufferView": 2,
      "byteOffset": 1572768,
      "componentType": 5126,
      "count": 65532,
      "max": [
        -1.342508316040039,
        1.9868435859680176,
        0.8235346674919128
      ],
      "min": [
        -5.124666213989258,
        -0.472608745098114,
        -2.0296630859375
      ],
      "type": "VEC3"
    },
    {
      "bufferView": 2,
      "byteOffset": 2359152,
      "componentType": 5126,
      "count": 65532,
      "max": [
        0.9999193549156189,
        0.9999974966049194,
        1.0
      ],
      "min": [
        -0.9999889135360718,
        -1.0,
        -1.0
      ],
      "type": "VEC3"
    },
    {
      "bufferView": 1,
      "byteOffset": 1048512,
      "componentType": 5126,
      "count": 65532,
      "max": [
        6.867886543273926,
        1.6301450729370117
      ],
      "min": [
        -6.867886543273926,
        -1.699082851409912
      ],
      "type": "VEC2"
    },
    {
      "bufferView": 1,
      "byteOffset": 1572768,
      "componentType": 5126,
      "count": 65532,
      "max": [
        6.867886543273926,
        1.6301450729370117
      ],
      "min": [
        -6.867886543273926,
        -1.699082851409912
      ],
      "type": "VEC2"
    },
    {
      "bufferView": 0,
      "byteOffset": 1325508,
      "componentType": 5125,
      "count": 346716,
      "type": "SCALAR"
    },
    {
      "bufferView": 2,
      "byteOffset": 3145536,
      "componentType": 5126,
      "count": 65532,
      "max": [
        5.037782669067383,
        2.137606620788574,
        4.077703952789307
      ],
      "min": [
        -2.0727458000183105,
        -1.4438481330871582,
        -3.2826507091522217
      ],
      "type": "VEC3"
    },
    {
      "bufferView": 2,
      "byteOffset": 3931920,
      "componentType": 5126,
      "count": 65532,
      "max": [
        0.9999995231628418,
        0.9999970197677612,
        1.0
      ],
      "min": [
        -1.0,
        -1.0,
        -1.0
      ],
      "type": "VEC3"
    },
    {
      "bufferView": 1,
      "byteOffset": 2097024,
      "componentType": 5126,
      "count": 65532,
      "max": [
        6.3737945556640625,
        2.924734115600586
      ],
      "min": [
        -6.520390510559082,
        -1.8751697540283203
      ],
      "type": "VEC2"
    },
    {
      "bufferView": 1,
      "byteOffset": 2621280,
      "componentType": 5126,
      "count": 65532,
      "max": [
        6.3737945556640625,
        2.924734115600586
      ],
      "min": [
        -6.520390510559082,
        -1.8751697540283203
      ],
      "type": "VEC2"
    },
    {
      "bufferView": 0,
      "byteOffset": 2712372,
      "componentType": 5125,
      "count": 347307,
      "type": "SCALAR"
    },
    {
      "bufferView": 2,
      "byteOffset": 4718304,
      "componentType": 5126,
      "count": 65532,
      "max": [
        5.127535820007324,
        2.0362296104431152,
        5.7048115730285645
      ],
      "min": [
        -0.538192629814148,
        -1.4500187635421753,
        -8.01980972290039
      ],
      "type": "VEC3"
    },
    {
      "bufferView": 2,
      "byteOffset": 5504688,
      "componentType": 5126,
      "count": 65532,
      "max": [
        0.9999997615814209,
        0.9999974966049194,
        1.0
      ],
      "min": [
        -1.0,
        -1.0,
        -1.0
      ],
      "type": "VEC3"
    },
    {
      "bufferView": 1,
      "byteOffset": 3145536,
      "componentType": 5126,
      "count": 65532,
      "max": [
        6.867886543273926,
        2.9435205459594727
      ],
      "min": [
        -6.867886543273926,
        -1.7169010639190674
      ],
      "type": "VEC2"
    },
    {
      "bufferView": 1,
      "byteOffset": 3669792,
      "componentType": 5126,
      "count": 65532,
      "max": [
        6.867886543273926,
        2.9435205459594727
      ],
      "min": [
        -6.867886543273926,
        -1.7169010639190674
      ],
      "type": "VEC2"
    },
    {
      "bufferView": 0,
      "byteOffset": 4101600,
      "componentType": 5125,
      "count": 345915,
      "type": "SCALAR"
    },
    {
      "bufferView": 2,
      "byteOffset": 6291072,
      "componentType": 5126,
      "count": 14302,
      "max": [
        5.004849910736084,
        2.137606620788574,
        5.706936359405518
      ],
      "min": [
        -2.0779218673706055,
        -1.4507086277008057,
        -7.595825672149658
      ],
      "type": "VEC3"
    },
    {
      "bufferView": 2,
      "byteOffset": 6462696,
      "componentType": 5126,
      "count": 14302,
      "max": [
        0.9999839067459106,
        1.0,
        0.9982402324676514
      ],
      "min": [
        -1.0,
        -0.9999972581863403,
        -0.9999945163726807
      ],
      "type": "VEC3"
    },
    {
      "bufferView": 1,
      "byteOffset": 4194048,
      "componentType": 5126,
      "count": 14302,
      "max": [
        6.549596786499023,
        2.9517507553100586
      ],
      "min": [
        -6.7017951011657715,
        -1.8751697540283203
      ],
      "type": "VEC2"
    },
    {
      "bufferView": 1,
      "byteOffset": 4308464,
      "componentType": 5126,
      "count": 14302,
      "max": [
        6.549596786499023,
        2.9517507553100586
      ],
      "min": [
        -6.7017951011657715,
        -1.8751697540283203
      ],
      "type": "VEC2"
    },
    {
      "bufferView": 0,
      "byteOffset": 5485260,
      "componentType": 5125,
      "count": 59205,
      "type": "SCALAR"
    },
    {
      "bufferView": 2,
      "byteOffset": 6634320,
      "componentType": 5126,
      "count": 17898,
      "max": [
        4.902095794677734,
        1.23915433883667,
        5.324993133544922
      ],
      "min": [
        -4.902095794677734,
        -1.0452609062194824,
        -0.569337785243988
      ],
      "type": "VEC3"
    },
    {
      "bufferView": 2,
      "byteOffset": 6849096,
      "componentType": 5126,
      "count": 17898,
      "max": [
        1.0,
        1.0,
        0.9979400038719177
      ],
      "min": [
        -1.0,
        -1.0,
        -0.061002302914857864
      ],
      "type": "VEC3"
    },
    {
      "bufferView": 1,
      "byteOffset": 4422880,
      "componentType": 5126,
      "count": 17898,
      "max": [
        0.8726704716682434,
        0.9090434908866882
      ],
      "min": [
        -0.003395975101739168,
        0.015439629554748535
      ],
      "type": "VEC2"
    },
    {
      "bufferView": 0,
      "byteOffset": 5722080,
      "componentType": 5125,
      "count": 85248,
      "type": "SCALAR"
    },
    {
      "bufferView": 2,
      "byteOffset": 7063872,
      "componentType": 5126,
      "count": 60923,
      "max": [
        4.926840782165527,
        1.2806804180145264,
        5.457477569580078
      ],
      "min": [
        -4.926840305328369,
        -1.113104224205017,
        -5.269543170928955
      ],
      "type": "VEC3"
    },
    {
      "bufferView": 2,
      "byteOffset": 7794948,
      "componentType": 5126,
      "count": 60923,
      "max": [
        0.9997580647468567,
        1.0,
        0.9999991655349731
      ],
      "min": [
        -0.9997580647468567,
        -0.9999291896820068,
        -0.9853403568267822
      ],
      "type": "VEC3"
    },
    {
      "bufferView": 1,
      "byteOffset": 4566064,
      "componentType": 5126,
      "count": 60923,
      "max": [
        0.8726704716682434,
        0.9235081076622009
      ],
      "min": [
        -0.007004261948168278,
        0.008495330810546875
      ],
      "type": "VEC2"
    },
    {
      "bufferView": 0,
      "byteOffset": 6063072,
      "componentType": 5125,
      "count": 331776,
      "type": "SCALAR"
    },
    {
      "bufferView": 2,
      "byteOffset": 8526024,
      "componentType": 5126,
      "count": 5586,
      "max": [
        1.8765145540237427,
        0.8685287833213806,
        5.575928688049316
      ],
      "min": [
        -1.8765145540237427,
        -0.3743644058704376,
        -1.4578025341033936
      ],
      "type": "VEC3"
    },
    {
      "bufferView": 2,
      "byteOffset": 8593056,
      "componentType": 5126,
      "count": 5586,
      "max": [
        0.9939978718757629,
        0.9939978718757629,
        0.47471123933792114
      ],
      "min": [
        -0.9939978718757629,
        -0.9939978718757629,
        -0.9952021241188049
      ],
      "type": "VEC3"
    },
    {
      "bufferView": 1,
      "byteOffset": 5053448,
      "componentType": 5126,
      "count": 5586,
      "max": [
        0.996797502040863,
        0.9967976212501526
      ],
      "min": [
        0.003202438820153475,
        0.0032023191452026367
      ],
      "type": "VEC2"
    },
    {
      "bufferView": 0,
      "byteOffset": 7390176,
      "componentType": 5125,
      "count": 29952,
      "type": "SCALAR"
    },
    {
      "bufferView": 2,
      "byteOffset": 8660088,
      "componentType": 5126,
      "count": 4334,
      "max": [
        3.394937515258789,
        1.9793024063110352,
        5.459477424621582
      ],
      "min": [
        -3.394937515258789,
        -1.0991158485412598,
        -5.685021877288818
      ],
      "type": "VEC3"
    },
    {
      "bufferView": 2,
      "byteOffset": 8712096,
      "componentType": 5126,
      "count": 4334,
      "max": [
        1.0,
        0.9945878982543945,
        0.9985238909721375
      ],
      "min": [
        -1.0,
        -0.9981047511100769,
        -0.9965270161628723
      ],
      "type": "VEC3"
    },
    {
      "bufferView": 1,
      "byteOffset": 5098136,
      "componentType": 5126,
      "count": 4334,
      "max": [
        0.9239535331726074,
        1.0401843786239624
      ],
      "min": [
        -0.14436312019824982,
        -0.2352522611618042
      ],
      "type": "VEC2"
    },
    {
      "bufferView": 0,
      "byteOffset": 7509984,
      "componentType": 5125,
      "count": 22272,
      "type": "SCALAR"
    },
    {
      "bufferView": 2,
      "byteOffset": 8764104,
      "componentType": 5126,
      "count": 11533,
      "max": [
        4.845965385437012,
        1.1449580192565918,
        3.692580461502075
      ],
      "min": [
        -4.84596586227417,
        -1.4225139617919922,
        -5.283092498779297
      ],
      "type": "VEC3"
    },
    {
      "bufferView": 2,
      "byteOffset": 8902500,
      "componentType": 5126,
      "count": 11533,
      "max": [
        0.9989466071128845,
        0.9995377063751221,
        0.8343814015388489
      ],
      "min": [
        -0.9989466071128845,
        -0.9999728202819824,
        -0.9970797896385193
      ],
      "type": "VEC3"
    },
    {
      "bufferView": 1,
      "byteOffset": 5132808,
      "componentType": 5126,
      "count": 11533,
      "max": [
        1.1450814008712769,
        1.0234994888305664
      ],
      "min": [
        6.431501020642827e-08,
        0.0
      ],
      "type": "VEC2"
    },
    {
      "bufferView": 0,
      "byteOffset": 7599072,
      "componentType": 5125,
      "count": 60864,
      "type": "SCALAR"
    },
    {
      "bufferView": 2,
      "byteOffset": 9040896,
      "componentType": 5126,
      "count": 2401,
      "max": [
        0.6265625357627869,
        1.028761386871338,
        5.706936359405518
      ],
      "min": [
        -0.6265625357627869,
        -1.2029167413711548,
        2.0149078369140625
      ],
      "type": "VEC3"
    },
    {
      "bufferView": 2,
      "byteOffset": 9069708,
      "componentType": 5126,
      "count": 2401,
      "max": [
        0.9970390200614929,
        0.9959862232208252,
        0.9981973767280579
      ],
      "min": [
        -0.9970390200614929,
        -0.1285032480955124,
        -0.18199372291564941
      ],
      "type": "VEC3"
    },
    {
      "bufferView": 1,
      "byteOffset": 5225072,
      "componentType": 5126,
      "count": 2401,
      "max": [
        0.8452615141868591,
        0.9605029821395874
      ],
      "min": [
        0.4999999403953552,
        0.04045736789703369
      ],
      "type": "VEC2"
    },
    {
      "bufferView": 0,
      "byteOffset": 7842528,
      "componentType": 5125,
      "count": 12288,
      "type": "SCALAR"
    }
  ],
  "asset": {
    "extras": {
      "author": "VertaScan (https://sketchfab.com/VertaScan)",
      "license": "CC-BY-4.0 (http://creativecommons.org/licenses/by/4.0/)",
      "source": "https://sketchfab.com/3d-models/the-dragon-fly-458ba3b79d3747ccafb1b068c2e0b1e7",
      "title": "The Dragon Fly"
    },
    "generator": "Sketchfab-15.77.0",
    "version": "2.0"
  },
  "bufferViews": [
    {
      "buffer": 0,
      "byteLength": 7891680,
      "name": "floatBufferViews",
      "target": 34963
    },
    {
      "buffer": 0,
      "byteLength": 5244280,
      "byteOffset": 7891680,
      "byteStride": 8,
      "name": "floatBufferViews",
      "target": 34962
    },
    {
      "buffer": 0,
      "byteLength": 9098520,
      "byteOffset": 13135960,
      "byteStride": 12,
      "name": "floatBufferViews",
      "target": 34962
    }
  ],
  "buffers": [
    {
      "byteLength": 22234480,
      "uri": "scene.bin"
    }
  ],
  "extensionsUsed": [
    "KHR_materials_clearcoat",
    "KHR_materials_specular",
    "KHR_materials_emissive_strength",
    "KHR_texture_transform"
  ],
  "images": [
    {
      "uri": "textures/hull_mat_baseColor.jpeg"
    },
    {
      "uri": "textures/hull_mat_metallicRoughness.png"
    },
    {
      "uri": "textures/hull_mat_clearcoat_normal.png"
    },
    {
      "uri": "textures/engine_trim_baseColor.jpeg"
    },
    {
      "uri": "textures/vent_baseColor.jpeg"
    }
  ],
  "materials": [
    {
      "doubleSided": true,
      "extensions": {
        "KHR_materials_clearcoat": {
          "clearcoatFactor": 0.9249551998634662,
          "clearcoatNormalTexture": {
            "index": 2
          },
          "clearcoatRoughnessFactor": 0.5714303129304774
        },
        "KHR_materials_specular": {
          "specularColorFactor": [
            1.0,
            1.0,
            1.0
          ],
          "specularFactor": 0.5775255696017358
        }
      },
      "name": "hull_mat",
      "pbrMetallicRoughness": {
        "baseColorTexture": {
          "index": 0
        },
        "metallicRoughnessTexture": {
          "index": 1
        },
        "roughnessFactor": 0.7908595530957808
      }
    },
    {
      "doubleSided": true,
      "emissiveFactor": [
        0.4404641729196031,
        0.11343253714827672,
        0.02119585615578466
      ],
      "extensions": {
        "KHR_materials_emissive_strength": {
          "emissiveStrength": 10.0
        }
      },
      "name": "engine_light",
      "pbrMetallicRoughness": {
        "baseColorFactor": [
          1.0,
          0.046559472231579385,
          0.0,
          1.0
        ]
      }
    },
    {
      "doubleSided": true,
      "name": "carbon_steel",
      "pbrMetallicRoughness": {
        "baseColorFactor": [
          0.0800111,
          0.0800111,
          0.0800111,
          1.0
        ],
        "roughnessFactor": 0.5
      }
    },
    {
      "doubleSided": true,
      "name": "glass",
      "pbrMetallicRoughness": {
        "baseColorFactor": [
          0.0134103,
          0.0134103,
          0.0134103,
          1.0
        ],
        "roughnessFactor": 0.0923077
      }
    },
    {
      "doubleSided": true,
      "name": "engine_trim",
      "pbrMetallicRoughness": {
        "baseColorTexture": {
          "index": 3
        },
        "roughnessFactor": 0.4
      }
    },
    {
      "doubleSided": true,
      "name": "vent",
      "pbrMetallicRoughness": {
        "baseColorTexture": {
          "extensions": {
            "KHR_texture_transform": {
              "offset": [
                0,
                -1.9
              ],
              "scale": [
                1,
                2.9
              ]
            }
          },
          "index": 4
        },
        "metallicFactor": 0.0,
        "roughnessFactor": 0.5
      }
    },
    {
      "doubleSided": true,
      "name": "steel_trim_2",
      "pbrMetallicRoughness": {
        "baseColorFactor": [
          0.0100215,
          0.0100215,
          0.0100215,
          1.0
        ],
        "roughnessFactor": 0.5
      }
    }
  ],
  "meshes": [
    {
      "name": "Object_0",
      "primitives": [
        {
          "attributes": {
            "NORMAL": 1,
            "POSITION": 0,
            "TEXCOORD_0": 2,
            "TEXCOORD_1": 3
          },
          "indices": 4,
          "material": 0,
          "mode": 4
        }
      ]
    },
    {
      "name": "Object_1",
      "primitives": [
        {
          "attributes": {
            "NORMAL": 6,
            "POSITION": 5,
            "TEXCOORD_0": 7,
            "TEXCOORD_1": 8
          },
          "indices": 9,
          "material": 0,
          "mode": 4
        }
      ]
    },
    {
      "name": "Object_2",
      "primitives": [
        {
          "attributes": {
            "NORMAL": 11,
            "POSITION": 10,
            "TEXCOORD_0": 12,
            "TEXCOORD_1": 13
          },
          "indices": 14,
          "material": 0,
          "mode": 4
        }
      ]
    },
    {
      "name": "Object_3",
      "primitives": [
        {
          "attributes": {
            "NORMAL": 16,
            "POSITION": 15,
            "TEXCOORD_0": 17,
            "TEXCOORD_1": 18
          },
          "indices": 19,
          "material": 0,
          "mode": 4
        }
      ]
    },
    {
      "name": "Object_4",
      "primitives": [
        {
          "attributes": {
            "NORMAL": 21,
            "POSITION": 20,
            "TEXCOORD_0": 22,
            "TEXCOORD_1": 23
          },
          "indices": 24,
          "material": 0,
          "mode": 4
        }
      ]
    },
    {
      "name": "Object_5",
      "primitives": [
        {
          "attributes": {
            "NORMAL": 26,
            "POSITION": 25,
            "TEXCOORD_0": 27
          },
          "indices": 28,
          "material": 1,
          "mode": 4
        }
      ]
    },
    {
      "name": "Object_6",
      "primitives": [
        {
          "attributes": {
            "NORMAL": 30,
            "POSITION": 29,
            "TEXCOORD_0": 31
          },
          "indices": 32,
          "material": 2,
          "mode": 4
        }
      ]
    },
    {
      "name": "Object_7",
      "primitives": [
        {
          "attributes": {
            "NORMAL": 34,
            "POSITION": 33,
            "TEXCOORD_0": 35
          },
          "indices": 36,
          "material": 3,
          "mode": 4
        }
      ]
    },
    {
      "name": "Object_8",
      "primitives": [
        {
          "attributes": {
            "NORMAL": 38,
            "POSITION": 37,
            "TEXCOORD_0": 39
          },
          "indices": 40,
          "material": 4,
          "mode": 4
        }
      ]
    },
    {
      "name": "Object_9",
      "primitives": [
        {
          "attributes": {
            "NORMAL": 42,
            "POSITION": 41,
            "TEXCOORD_0": 43
          },
          "indices": 44,
          "material": 5,
          "mode": 4
        }
      ]
    },
    {
      "name": "Object_10",
      "primitives": [
        {
          "attributes": {
            "NORMAL": 46,
            "POSITION": 45,
            "TEXCOORD_0": 47
          },
          "indices": 48,
          "material": 6,
          "mode": 4
        }
      ]
    }
  ],
  "nodes": [
    {
      "children": [
        1
      ],
      "matrix": [
        1.0,
        0.0,
        0.0,
        0.0,
        0.0,
        2.220446049250313e-16,
        -1.0,
        0.0,
        0.0,
        1.0,
        2.220446049250313e-16,
        0.0,
        0.0,
        0.0,
        0.0,
        1.0
      ],
      "name": "Sketchfab_model"
    },
    {
      "children": [
        2
      ],
      "name": "root"
    },
    {
      "children": [
        3
      ],
      "matrix": [
        1.0,
        0.0,
        0.0,
        0.0,
        0.0,
        2.220446049250313e-16,
        1.0,
        0.0,
        0.0,
        -1.0,
        2.220446049250313e-16,
        0.0,
        0.0,
        0.0,
        0.0,
        1.0
      ],
      "name": "GLTF_SceneRootNode"
    },
    {
      "children": [
        4,
        5,
        6,
        7,
        8,
        9,
        10,
        11,
        12,
        13,
        14
      ],
      "matrix": [
        1.0,
        0.0,
        0.0,
        0.0,
        0.0,
        1.0,
        0.0,
        0.0,
        0.0,
        0.0,
        1.0,
        0.0,
        0.0,
        1.7000000476837158,
        0.0,
        1.0
      ],
      "name": "the dragon fly_0"
    },
    {
      "mesh": 0,
      "name": "Object_4"
    },
    {
      "mesh": 1,
      "name": "Object_5"
    },
    {
      "mesh": 2,
      "name": "Object_6"
    },
    {
      "mesh": 3,
      "name": "Object_7"
    },
    {
      "mesh": 4,
      "name": "Object_8"
    },
    {
      "mesh": 5,
      "name": "Object_9"
    },
    {
      "mesh": 6,
      "name": "Object_10"
    },
    {
      "mesh": 7,
      "name": "Object_11"
    },
    {
      "mesh": 8,
      "name": "Object_12"
    },
    {
      "mesh": 9,
      "name": "Object_13"
    },
    {
      "mesh": 10,
      "name": "Object_14"
    }
  ],
  "samplers": [
    {
      "magFilter": 9729,
      "minFilter": 9987,
      "wrapS": 10497,
      "wrapT": 10497
    }
  ],
  "scene": 0,
  "scenes": [
    {
      "name": "Sketchfab_Scene",
      "nodes": [
        0
      ]
    }
  ],
  "textures": [
    {
      "sampler": 0,
      "source": 0
    },
    {
      "sampler": 0,
      "source": 1
    },
    {
      "sampler": 0,
      "source": 2
    },
    {
      "sampler": 0,
      "source": 3
    },
    {
      "sampler": 0,
      "source": 4
    }
  ]
}
